<svg version="1.1" xmlns="http://www.w3.org/2000/svg" viewBox="0 0 295 236.83160776198758" width="295" height="236.83160776198758">
  <!-- svg-source:excalidraw -->
  
  <defs>
    <style>
      @font-face {
        font-family: "Virgil";
        src: url("https://unpkg.com/@excalidraw/excalidraw@0.12.0-32d8221/dist/excalidraw-assets/Virgil.woff2");
      }
      @font-face {
        font-family: "Cascadia";
        src: url("https://unpkg.com/@excalidraw/excalidraw@0.12.0-32d8221/dist/excalidraw-assets/Cascadia.woff2");
      }
    </style>
  </defs>
  <g stroke-linecap="round" transform="translate(49.69920179399605 10) rotate(0 91.22003814113015 91.22003814113015)"><path d="M-0.69 -1.54 C63.97 3.41, 127.12 0.18, 183.01 -1.9 M181.14 -1.98 C184.86 54.44, 184.42 105.68, 180.76 184.19 M183.36 182.63 C120.84 180.48, 59.56 182.83, 0.3 182.23 M0.63 183.95 C1.5 118.51, -0.45 54, 1.77 0.65" stroke="#000000" stroke-width="1.5" fill="none" stroke-dasharray="8 9"></path></g><g stroke-linecap="round"><g transform="translate(142.46024569566407 17.35533818904503) rotate(89.96806048575621 0 81.5907161445731)" fill-rule="evenodd"><path d="M0 0 L70.66 40.8 L70.66 122.39 L0 163.18 L-70.66 122.39 L-70.66 40.8 L0 0" stroke="none" stroke-width="0" fill="#fff" fill-rule="evenodd"></path><path d="M0 0 C22.17 12.8, 44.35 25.6, 70.66 40.8 M0 0 C22.91 13.23, 45.82 26.45, 70.66 40.8 M70.66 40.8 C70.66 73.08, 70.66 105.36, 70.66 122.39 M70.66 40.8 C70.66 65.6, 70.66 90.41, 70.66 122.39 M70.66 122.39 C48.1 135.41, 25.53 148.44, 0 163.18 M70.66 122.39 C52.14 133.08, 33.62 143.77, 0 163.18 M0 163.18 C-27.69 147.19, -55.39 131.2, -70.66 122.39 M0 163.18 C-18.8 152.32, -37.61 141.47, -70.66 122.39 M-70.66 122.39 C-70.66 101.88, -70.66 81.37, -70.66 40.8 M-70.66 122.39 C-70.66 93.45, -70.66 64.51, -70.66 40.8 M-70.66 40.8 C-46.78 27.01, -22.9 13.22, 0 0 M-70.66 40.8 C-48.39 27.94, -26.11 15.08, 0 0 M0 0 C0 0, 0 0, 0 0 M0 0 C0 0, 0 0, 0 0" stroke="#000000" stroke-width="1" fill="none"></path></g></g><g stroke-linecap="round"><g transform="translate(141.20265967485966 43.788449677394624) rotate(89.96806048575621 5.684341886080802e-14 54.025653779518194)" fill-rule="evenodd"><path d="M0 0 L46.79 27.01 L46.79 81.04 L0 108.05 L-46.79 81.04 L-46.79 27.01 L0 0" stroke="none" stroke-width="0" fill="#fff" fill-rule="evenodd"></path><path d="M0 0 C10.13 5.85, 20.26 11.7, 46.79 27.01 M0 0 C14.81 8.55, 29.61 17.1, 46.79 27.01 M46.79 27.01 C46.79 42.9, 46.79 58.78, 46.79 81.04 M46.79 27.01 C46.79 44.23, 46.79 61.45, 46.79 81.04 M46.79 81.04 C28.91 91.36, 11.03 101.68, 0 108.05 M46.79 81.04 C31.06 90.12, 15.34 99.2, 0 108.05 M0 108.05 C-18.53 97.35, -37.06 86.65, -46.79 81.04 M0 108.05 C-9.7 102.45, -19.41 96.85, -46.79 81.04 M-46.79 81.04 C-46.79 67.54, -46.79 54.04, -46.79 27.01 M-46.79 81.04 C-46.79 65.04, -46.79 49.05, -46.79 27.01 M-46.79 27.01 C-31.13 17.98, -15.48 8.94, 0 0 M-46.79 27.01 C-29.85 17.24, -12.92 7.46, 0 0 M0 0 C0 0, 0 0, 0 0 M0 0 C0 0, 0 0, 0 0" stroke="#000000" stroke-width="1" fill="none"></path></g></g><g stroke-linecap="round" transform="translate(88.29083071701598 63.36429860462886) rotate(89.96806048575621 12.020815715551407 11.480451428147603)"><path d="M0 0 L24.04 0 L24.04 22.96 L0 22.96" stroke="none" stroke-width="0" fill="#fff"></path><path d="M0 0 C6.38 0, 12.76 0, 24.04 0 M0 0 C5.65 0, 11.3 0, 24.04 0 M24.04 0 C24.04 7.95, 24.04 15.89, 24.04 22.96 M24.04 0 C24.04 7.61, 24.04 15.22, 24.04 22.96 M24.04 22.96 C14.85 22.96, 5.65 22.96, 0 22.96 M24.04 22.96 C15.38 22.96, 6.72 22.96, 0 22.96 M0 22.96 C0 16.38, 0 9.81, 0 0 M0 22.96 C0 16.31, 0 9.66, 0 0" stroke="#087f5b" stroke-width="1" fill="none"></path></g><g stroke-linecap="round" transform="translate(91.67440117264368 112.48394564849355) rotate(89.96806048575621 9.792025333264917 9.237759748363118)"><path d="M19.58 9.24 C19.58 9.77, 19.53 10.32, 19.44 10.84 C19.34 11.37, 19.19 11.89, 18.99 12.4 C18.8 12.9, 18.56 13.39, 18.27 13.86 C17.99 14.32, 17.66 14.77, 17.29 15.18 C16.93 15.59, 16.52 15.97, 16.09 16.31 C15.65 16.66, 15.18 16.97, 14.69 17.24 C14.2 17.51, 13.67 17.74, 13.14 17.92 C12.61 18.1, 12.05 18.24, 11.49 18.34 C10.93 18.43, 10.36 18.48, 9.79 18.48 C9.23 18.48, 8.65 18.43, 8.09 18.34 C7.53 18.24, 6.98 18.1, 6.44 17.92 C5.91 17.74, 5.39 17.51, 4.9 17.24 C4.41 16.97, 3.93 16.66, 3.5 16.31 C3.06 15.97, 2.66 15.59, 2.29 15.18 C1.93 14.77, 1.6 14.32, 1.31 13.86 C1.03 13.39, 0.78 12.9, 0.59 12.4 C0.4 11.89, 0.25 11.37, 0.15 10.84 C0.05 10.32, 0 9.77, 0 9.24 C0 8.7, 0.05 8.16, 0.15 7.63 C0.25 7.11, 0.4 6.58, 0.59 6.08 C0.78 5.58, 1.03 5.08, 1.31 4.62 C1.6 4.16, 1.93 3.71, 2.29 3.3 C2.66 2.89, 3.06 2.5, 3.5 2.16 C3.93 1.82, 4.41 1.5, 4.9 1.24 C5.39 0.97, 5.91 0.74, 6.44 0.56 C6.98 0.37, 7.53 0.23, 8.09 0.14 C8.65 0.05, 9.23 0, 9.79 0 C10.36 0, 10.93 0.05, 11.49 0.14 C12.05 0.23, 12.61 0.37, 13.14 0.56 C13.67 0.74, 14.2 0.97, 14.69 1.24 C15.18 1.5, 15.65 1.82, 16.09 2.16 C16.52 2.5, 16.93 2.89, 17.29 3.3 C17.66 3.71, 17.99 4.16, 18.27 4.62 C18.56 5.08, 18.8 5.58, 18.99 6.08 C19.19 6.58, 19.34 7.11, 19.44 7.63 C19.53 8.16, 19.56 8.97, 19.58 9.24 C19.61 9.51, 19.61 8.97, 19.58 9.24" stroke="none" stroke-width="0" fill="#fff"></path><path d="M19.58 9.24 C19.58 9.77, 19.53 10.32, 19.44 10.84 C19.34 11.37, 19.19 11.89, 18.99 12.4 C18.8 12.9, 18.56 13.39, 18.27 13.86 C17.99 14.32, 17.66 14.77, 17.29 15.18 C16.93 15.59, 16.52 15.97, 16.09 16.31 C15.65 16.66, 15.18 16.97, 14.69 17.24 C14.2 17.51, 13.67 17.74, 13.14 17.92 C12.61 18.1, 12.05 18.24, 11.49 18.34 C10.93 18.43, 10.36 18.48, 9.79 18.48 C9.23 18.48, 8.65 18.43, 8.09 18.34 C7.53 18.24, 6.98 18.1, 6.44 17.92 C5.91 17.74, 5.39 17.51, 4.9 17.24 C4.41 16.97, 3.93 16.66, 3.5 16.31 C3.06 15.97, 2.66 15.59, 2.29 15.18 C1.93 14.77, 1.6 14.32, 1.31 13.86 C1.03 13.39, 0.78 12.9, 0.59 12.4 C0.4 11.89, 0.25 11.37, 0.15 10.84 C0.05 10.32, 0 9.77, 0 9.24 C0 8.7, 0.05 8.16, 0.15 7.63 C0.25 7.11, 0.4 6.58, 0.59 6.08 C0.78 5.58, 1.03 5.08, 1.31 4.62 C1.6 4.16, 1.93 3.71, 2.29 3.3 C2.66 2.89, 3.06 2.5, 3.5 2.16 C3.93 1.82, 4.41 1.5, 4.9 1.24 C5.39 0.97, 5.91 0.74, 6.44 0.56 C6.98 0.37, 7.53 0.23, 8.09 0.14 C8.65 0.05, 9.23 0, 9.79 0 C10.36 0, 10.93 0.05, 11.49 0.14 C12.05 0.23, 12.61 0.37, 13.14 0.56 C13.67 0.74, 14.2 0.97, 14.69 1.24 C15.18 1.5, 15.65 1.82, 16.09 2.16 C16.52 2.5, 16.93 2.89, 17.29 3.3 C17.66 3.71, 17.99 4.16, 18.27 4.62 C18.56 5.08, 18.8 5.58, 18.99 6.08 C19.19 6.58, 19.34 7.11, 19.44 7.63 C19.53 8.16, 19.56 8.97, 19.58 9.24 C19.61 9.51, 19.61 8.97, 19.58 9.24" stroke="#087f5b" stroke-width="1" fill="none"></path></g><g stroke-linecap="round" transform="translate(165.6539372949137 111.22661761720826) rotate(0 14.637426556108892 13.979439381396247)"><path d="M0 0 C0 0, 0 0, 0 0 M0 0 C0 0, 0 0, 0 0 M-0.75 6.25 C0.83 5.22, 2.7 3.61, 5.18 0.28 M0.07 6.51 C1.53 4.32, 3.57 1.87, 4.78 0.03 M0.24 11.86 C5.27 6.84, 8.38 4.2, 10.68 -1.29 M0.89 12.6 C4.23 7.14, 8.31 2.55, 10.21 -0.02 M1.51 19.55 C6.3 10.52, 12.75 5.71, 17.34 -0.72 M-0.39 18.58 C6.79 11.38, 12.48 3.96, 14.68 -0.28 M0.92 25.56 C5.16 20.87, 8.71 13.45, 20.22 -1.82 M0.59 24.77 C7.31 17.12, 13.51 8.22, 21.2 -1.06 M1.73 30.75 C6.8 21.81, 10.1 16.38, 25.43 1.48 M0.47 29.39 C10.24 19.16, 18.63 8.78, 26.8 0.89 M5.86 30.76 C10.36 22.29, 14.99 18.83, 29.87 -0.51 M6.98 29.51 C15.38 17.53, 26.22 7.97, 30.44 1.1 M11.66 28.67 C16.21 25.08, 22.66 17.14, 30.18 7.16 M11.07 28.32 C15.52 25.14, 19.3 20.09, 31.02 7.46 M15.99 28.68 C20.74 22.93, 26.36 19.11, 32.19 14.18 M16.09 30.05 C20.53 24.86, 25.53 19.68, 30.91 12.69 M22.49 28.82 C24.55 26.33, 27.53 24.22, 30.92 19.34 M22.36 28.98 C24.97 27.07, 26.52 24.14, 29.89 19.72 M27.07 29.49 C28.58 28.71, 28.5 27.68, 30.74 25.94 M27.65 29.08 C28.5 28.51, 29.1 27.48, 31.04 25.65 M-0.26 27.73 C-0.26 27.73, -0.26 27.73, -0.26 27.73 M-0.26 27.73 C-0.26 27.73, -0.26 27.73, -0.26 27.73 M6.94 27.76 C4.28 26.74, 2.94 25.69, -0.16 22.66 M5.84 28.39 C4.51 26.49, 3.69 25.76, -0.15 22.63 M10.87 28.67 C8.14 24.76, 4.39 23.03, -0.4 17.73 M12.48 27.86 C9.33 25.22, 7.03 23.23, 0.42 16.85 M19.31 26.05 C11.67 20.47, 6.16 15.29, 0.2 14.1 M18.45 28.26 C12.02 21.12, 4.95 16.25, 0.78 12.2 M25.53 27.14 C16.57 22.14, 12.99 15.48, 0.31 7.84 M24.87 27.64 C19.2 23.51, 13.6 18.86, 0.41 6.24 M29.74 27.4 C17.23 19.56, 7.48 11.3, 1.04 0.03 M29.73 27.48 C18.11 18.83, 7.69 9.27, -0.6 1.74 M28.25 21.87 C22.14 15.43, 13.75 5.97, 3.4 -3.8 M30.21 22.05 C23.42 15.09, 14.91 9.27, 2.35 -1.72 M30.35 15.23 C24.49 11.09, 16.03 4.09, 6.94 -1.45 M28.93 15.65 C25.96 12.45, 21.09 8.16, 9.21 -1.43 M28.79 11.37 C24.61 5.39, 17.36 0.96, 12.66 -3.85 M30.61 10.56 C24.9 6.6, 19.25 3.01, 13.52 -1.92 M29.64 5.41 C28.17 3.69, 26 2.56, 21.25 -1.01 M30.58 6.02 C27.39 3.86, 23.06 0.9, 20.85 -2.08 M29.49 0.67 C28.81 -0.49, 27.9 -0.68, 26.29 -2.92 M29.79 0.83 C28.79 0.04, 27.93 -0.83, 25.78 -2.58" stroke="#fa5252" stroke-width="0.5" fill="none"></path><path d="M-1.34 0.57 C6.91 -0.03, 18.1 0.44, 27.98 -1.98 M-0.57 -0.84 C12.55 0.1, 24.3 -0.29, 29.74 0.09 M29.78 0.3 C28.81 8, 29.1 14.34, 29.9 29.47 M29.07 0.89 C29.61 11.05, 29.48 21.99, 30.1 27.86 M29.99 29.41 C20.92 26.7, 9.79 28.53, 1.21 27.95 M28.88 27.64 C19.93 28, 12.18 28.7, -0.14 27.61 M0.83 28.12 C-0.83 21.75, -0.69 10.73, -0.21 1.96 M-0.75 28.36 C-0.49 20.5, -0.5 13.09, 0.16 0.67" stroke="#000000" stroke-width="1" fill="none"></path></g><g stroke-linecap="round" transform="translate(163.5528571877403 55.32439568191796) rotate(0 13.871548497293588 14.028663849698717)"><path d="M0 0 C0 0, 0 0, 0 0 M0 0 C0 0, 0 0, 0 0 M-0.41 6.1 C2.26 4.21, 4.35 1.95, 4.91 0.96 M-0.15 6.19 C1.17 4.79, 2.22 3.28, 4.66 0.54 M-0.04 13.55 C2.32 9.33, 7.09 4.67, 9.38 1.47 M0.7 12.1 C4 7.32, 8.18 2.29, 10.65 0.72 M0.98 18.51 C2.44 14.77, 8.11 12.32, 14.57 2.2 M0.01 19.1 C4.23 13.7, 8.23 7.69, 15.01 -0.55 M1.74 24.56 C8.73 16.06, 12.98 7.92, 19.51 0.39 M0.95 24.5 C8.69 15.11, 15.19 6.46, 20.27 -0.93 M3.1 29.31 C9.44 16.68, 19.32 7.01, 27.43 1.51 M1.73 28.96 C9.92 19.29, 17.95 11.2, 26.84 -0.64 M7.73 28.31 C11.73 20.3, 20.72 13.32, 28.01 4.09 M6.49 28.54 C10.58 23.81, 17.12 17.48, 29.61 1.79 M11.68 28.36 C20.67 21.98, 25.31 12.46, 30.42 5.89 M11.33 28.73 C18.98 21.44, 24.78 14.48, 30.73 7.71 M16.31 29.17 C19.68 25.66, 24.98 20.46, 30.78 14.67 M17.69 28.39 C21.22 24.92, 24.75 21.34, 29.3 14.29 M22.5 28.54 C25.5 25.92, 28.86 23.07, 29.34 19.89 M22.65 29.35 C24.61 27.09, 25.62 24.39, 29.68 20.14 M-0.31 27.79 C-0.31 27.79, -0.31 27.79, -0.31 27.79 M-0.31 27.79 C-0.31 27.79, -0.31 27.79, -0.31 27.79 M6.06 27.57 C5.05 26.76, 3.12 25.8, 0.72 22.39 M5.93 27.74 C4.08 26.38, 1.91 24.18, 0.06 22.51 M11.99 27.32 C7.98 23.66, 3.85 20.17, -0.52 15.95 M13.32 27.85 C7.63 25.07, 4.17 19.95, -0.59 16.97 M18.62 27.03 C11.2 20.82, 6.11 15.97, 0.75 10.57 M17.67 27.53 C11.03 22.6, 5.22 17.71, -0.28 12.77 M22.72 28.25 C14.4 21.85, 6.2 13.37, 1.6 8.27 M24.93 29.03 C16.3 22.53, 10.04 15.94, -0.29 6.03 M27.68 24.75 C18.76 19.41, 8.16 11, 1.35 -0.26 M28.18 26.47 C18.16 16.91, 7.39 8.76, -0.25 1.98 M29.35 19.53 C20.43 11.3, 11.04 5.29, 0.4 -1.02 M29.43 20.72 C20.7 12.68, 10.86 4.62, 2.1 -1.97 M28.41 16.79 C25.25 13.11, 18.91 9.28, 6.64 -2.65 M28.59 16.67 C22.2 10.57, 17.02 6.46, 8.72 -1.87 M27.78 12.31 C23.95 5.89, 17.44 0.83, 14.37 -4.13 M28.19 11.72 C24.36 7.44, 19.6 4.27, 14.39 -1.71 M28.55 5.45 C25.62 2.51, 23.57 0.45, 19.45 -2.02 M28.1 5.19 C24.89 1.98, 22 -0.49, 20.51 -2.32" stroke="#4c6ef5" stroke-width="0.5" fill="none"></path><path d="M0.57 -1.9 C10.79 0.67, 22.2 -1.11, 25.76 1.98 M-0.84 0.88 C10.07 1.11, 19.44 0.62, 27.84 -0.5 M28.05 -0.21 C28.52 5.9, 27.88 12.27, 29.25 29.63 M28.63 0.33 C28.15 8.73, 28.51 17.9, 27.65 28.26 M29.19 29.07 C17.9 27.4, 10.99 29.36, -0.01 28.21 M27.42 27.72 C18.68 28.87, 10.04 27.81, -0.35 27.81 M0.16 27.24 C1.41 18.87, -1.92 10.82, 1.96 -0.86 M0.4 27.58 C-0.22 19, -0.45 11.08, 0.67 0.4" stroke="#000000" stroke-width="1" fill="none"></path></g><g transform="translate(10 195.02888667355222) rotate(0 137.5 15.901360544217681)"><text x="0" y="25.802721088435373" font-family="Cascadia, Segoe UI Emoji" font-size="25.993555316863574px" fill="#000000" text-anchor="start" style="white-space: pre;" direction="ltr">ZW&gt; Code Generator</text></g></svg>